<mxfile host="65bd71144e">
    <diagram id="YDHxZ3cZUokYSzvtKcQt" name="time_split">
        <mxGraphModel dx="1059" dy="787" grid="1" gridSize="10" guides="1" tooltips="1" connect="1" arrows="1" fold="1" page="1" pageScale="1" pageWidth="850" pageHeight="1100" math="0" shadow="0">
            <root>
                <mxCell id="0"/>
                <mxCell id="1" parent="0"/>
                <mxCell id="92" value="" style="rounded=0;whiteSpace=wrap;html=1;strokeColor=none;" parent="1" vertex="1">
                    <mxGeometry x="205" y="111" width="335" height="349" as="geometry"/>
                </mxCell>
                <mxCell id="2" value="" style="html=1;whiteSpace=wrap;shape=isoCube2;backgroundOutline=1;isoAngle=22.30000000000001;rotation=0;opacity=50;" parent="1" vertex="1">
                    <mxGeometry x="375" y="210" width="50" height="70" as="geometry"/>
                </mxCell>
                <mxCell id="3" value="" style="endArrow=classic;html=1;" parent="1" edge="1">
                    <mxGeometry width="50" height="50" relative="1" as="geometry">
                        <mxPoint x="395" y="450" as="sourcePoint"/>
                        <mxPoint x="525" y="360" as="targetPoint"/>
                    </mxGeometry>
                </mxCell>
                <mxCell id="4" value="Tiempo" style="edgeLabel;html=1;align=center;verticalAlign=middle;resizable=0;points=[];" parent="3" vertex="1" connectable="0">
                    <mxGeometry x="0.1573" relative="1" as="geometry">
                        <mxPoint x="-18" y="11" as="offset"/>
                    </mxGeometry>
                </mxCell>
                <mxCell id="7" value="" style="endArrow=baseDash;startArrow=baseDash;html=1;startFill=0;endFill=0;" parent="1" edge="1">
                    <mxGeometry width="50" height="50" relative="1" as="geometry">
                        <mxPoint x="250" y="360" as="sourcePoint"/>
                        <mxPoint x="370" y="450" as="targetPoint"/>
                    </mxGeometry>
                </mxCell>
                <mxCell id="8" value="Variables" style="edgeLabel;html=1;align=center;verticalAlign=middle;resizable=0;points=[];" parent="7" vertex="1" connectable="0">
                    <mxGeometry x="-0.1444" y="-2" relative="1" as="geometry">
                        <mxPoint as="offset"/>
                    </mxGeometry>
                </mxCell>
                <mxCell id="11" value="" style="endArrow=baseDash;startArrow=baseDash;html=1;endFill=0;startFill=0;opacity=50;" parent="1" edge="1">
                    <mxGeometry width="50" height="50" relative="1" as="geometry">
                        <mxPoint x="230" y="340" as="sourcePoint"/>
                        <mxPoint x="230" y="220" as="targetPoint"/>
                    </mxGeometry>
                </mxCell>
                <mxCell id="12" value="Muestras &lt;br&gt;pasadas" style="edgeLabel;html=1;align=center;verticalAlign=middle;resizable=0;points=[];" parent="11" vertex="1" connectable="0">
                    <mxGeometry x="-0.1444" y="-2" relative="1" as="geometry">
                        <mxPoint as="offset"/>
                    </mxGeometry>
                </mxCell>
                <mxCell id="13" value="" style="html=1;whiteSpace=wrap;shape=isoCube2;backgroundOutline=1;isoAngle=22.30000000000001;rotation=0;opacity=50;" parent="1" vertex="1">
                    <mxGeometry x="375" y="180" width="50" height="70" as="geometry"/>
                </mxCell>
                <mxCell id="14" value="" style="html=1;whiteSpace=wrap;shape=isoCube2;backgroundOutline=1;isoAngle=22.30000000000001;rotation=0;opacity=50;" parent="1" vertex="1">
                    <mxGeometry x="375" y="150" width="50" height="70" as="geometry"/>
                </mxCell>
                <mxCell id="15" value="" style="html=1;whiteSpace=wrap;shape=isoCube2;backgroundOutline=1;isoAngle=22.30000000000001;rotation=0;opacity=50;" parent="1" vertex="1">
                    <mxGeometry x="375" y="120" width="50" height="70" as="geometry"/>
                </mxCell>
                <mxCell id="16" value="" style="html=1;whiteSpace=wrap;shape=isoCube2;backgroundOutline=1;isoAngle=22.30000000000001;rotation=0;opacity=50;" parent="1" vertex="1">
                    <mxGeometry x="350" y="230" width="50" height="70" as="geometry"/>
                </mxCell>
                <mxCell id="17" value="" style="html=1;whiteSpace=wrap;shape=isoCube2;backgroundOutline=1;isoAngle=22.30000000000001;rotation=0;opacity=50;" parent="1" vertex="1">
                    <mxGeometry x="350" y="200" width="50" height="70" as="geometry"/>
                </mxCell>
                <mxCell id="18" value="" style="html=1;whiteSpace=wrap;shape=isoCube2;backgroundOutline=1;isoAngle=22.30000000000001;rotation=0;opacity=50;" parent="1" vertex="1">
                    <mxGeometry x="350" y="170" width="50" height="70" as="geometry"/>
                </mxCell>
                <mxCell id="19" value="" style="html=1;whiteSpace=wrap;shape=isoCube2;backgroundOutline=1;isoAngle=22.30000000000001;rotation=0;opacity=50;" parent="1" vertex="1">
                    <mxGeometry x="350" y="140" width="50" height="70" as="geometry"/>
                </mxCell>
                <mxCell id="20" value="" style="html=1;whiteSpace=wrap;shape=isoCube2;backgroundOutline=1;isoAngle=22.30000000000001;rotation=0;opacity=50;" parent="1" vertex="1">
                    <mxGeometry x="320" y="250" width="50" height="70" as="geometry"/>
                </mxCell>
                <mxCell id="21" value="" style="html=1;whiteSpace=wrap;shape=isoCube2;backgroundOutline=1;isoAngle=22.30000000000001;rotation=0;opacity=50;" parent="1" vertex="1">
                    <mxGeometry x="320" y="220" width="50" height="70" as="geometry"/>
                </mxCell>
                <mxCell id="22" value="" style="html=1;whiteSpace=wrap;shape=isoCube2;backgroundOutline=1;isoAngle=22.30000000000001;rotation=0;opacity=50;" parent="1" vertex="1">
                    <mxGeometry x="320" y="190" width="50" height="70" as="geometry"/>
                </mxCell>
                <mxCell id="23" value="" style="html=1;whiteSpace=wrap;shape=isoCube2;backgroundOutline=1;isoAngle=22.30000000000001;rotation=0;opacity=50;" parent="1" vertex="1">
                    <mxGeometry x="320" y="160" width="50" height="70" as="geometry"/>
                </mxCell>
                <mxCell id="24" value="" style="html=1;whiteSpace=wrap;shape=isoCube2;backgroundOutline=1;isoAngle=22.30000000000001;rotation=0;opacity=50;" parent="1" vertex="1">
                    <mxGeometry x="290" y="270" width="50" height="70" as="geometry"/>
                </mxCell>
                <mxCell id="25" value="" style="html=1;whiteSpace=wrap;shape=isoCube2;backgroundOutline=1;isoAngle=22.30000000000001;rotation=0;opacity=50;" parent="1" vertex="1">
                    <mxGeometry x="290" y="240" width="50" height="70" as="geometry"/>
                </mxCell>
                <mxCell id="26" value="" style="html=1;whiteSpace=wrap;shape=isoCube2;backgroundOutline=1;isoAngle=22.30000000000001;rotation=0;opacity=50;" parent="1" vertex="1">
                    <mxGeometry x="290" y="210" width="50" height="70" as="geometry"/>
                </mxCell>
                <mxCell id="27" value="" style="html=1;whiteSpace=wrap;shape=isoCube2;backgroundOutline=1;isoAngle=22.30000000000001;rotation=0;opacity=50;" parent="1" vertex="1">
                    <mxGeometry x="290" y="180" width="50" height="70" as="geometry"/>
                </mxCell>
                <mxCell id="28" value="" style="html=1;whiteSpace=wrap;shape=isoCube2;backgroundOutline=1;isoAngle=22.30000000000001;rotation=0;opacity=50;strokeColor=#FF0000;" parent="1" vertex="1">
                    <mxGeometry x="260" y="290" width="50" height="70" as="geometry"/>
                </mxCell>
                <mxCell id="29" value="" style="html=1;whiteSpace=wrap;shape=isoCube2;backgroundOutline=1;isoAngle=22.30000000000001;rotation=0;opacity=50;strokeColor=#FF0000;" parent="1" vertex="1">
                    <mxGeometry x="260" y="260" width="50" height="70" as="geometry"/>
                </mxCell>
                <mxCell id="30" value="" style="html=1;whiteSpace=wrap;shape=isoCube2;backgroundOutline=1;isoAngle=22.30000000000001;rotation=0;opacity=50;strokeColor=#FF0000;" parent="1" vertex="1">
                    <mxGeometry x="260" y="230" width="50" height="70" as="geometry"/>
                </mxCell>
                <mxCell id="31" value="" style="html=1;whiteSpace=wrap;shape=isoCube2;backgroundOutline=1;isoAngle=22.30000000000001;rotation=0;opacity=50;strokeColor=#FF0000;" parent="1" vertex="1">
                    <mxGeometry x="260" y="200" width="50" height="70" as="geometry"/>
                </mxCell>
                <mxCell id="32" value="" style="html=1;whiteSpace=wrap;shape=isoCube2;backgroundOutline=1;isoAngle=22.30000000000001;rotation=0;opacity=50;" parent="1" vertex="1">
                    <mxGeometry x="405" y="235" width="50" height="70" as="geometry"/>
                </mxCell>
                <mxCell id="33" value="" style="html=1;whiteSpace=wrap;shape=isoCube2;backgroundOutline=1;isoAngle=22.30000000000001;rotation=0;opacity=50;" parent="1" vertex="1">
                    <mxGeometry x="405" y="205" width="50" height="70" as="geometry"/>
                </mxCell>
                <mxCell id="34" value="" style="html=1;whiteSpace=wrap;shape=isoCube2;backgroundOutline=1;isoAngle=22.30000000000001;rotation=0;opacity=50;" parent="1" vertex="1">
                    <mxGeometry x="405" y="175" width="50" height="70" as="geometry"/>
                </mxCell>
                <mxCell id="35" value="" style="html=1;whiteSpace=wrap;shape=isoCube2;backgroundOutline=1;isoAngle=22.30000000000001;rotation=0;opacity=50;" parent="1" vertex="1">
                    <mxGeometry x="405" y="145" width="50" height="70" as="geometry"/>
                </mxCell>
                <mxCell id="36" value="" style="html=1;whiteSpace=wrap;shape=isoCube2;backgroundOutline=1;isoAngle=22.30000000000001;rotation=0;opacity=50;" parent="1" vertex="1">
                    <mxGeometry x="380" y="255" width="50" height="70" as="geometry"/>
                </mxCell>
                <mxCell id="37" value="" style="html=1;whiteSpace=wrap;shape=isoCube2;backgroundOutline=1;isoAngle=22.30000000000001;rotation=0;opacity=50;" parent="1" vertex="1">
                    <mxGeometry x="380" y="225" width="50" height="70" as="geometry"/>
                </mxCell>
                <mxCell id="38" value="" style="html=1;whiteSpace=wrap;shape=isoCube2;backgroundOutline=1;isoAngle=22.30000000000001;rotation=0;opacity=50;" parent="1" vertex="1">
                    <mxGeometry x="380" y="190" width="50" height="75" as="geometry"/>
                </mxCell>
                <mxCell id="39" value="" style="html=1;whiteSpace=wrap;shape=isoCube2;backgroundOutline=1;isoAngle=22.30000000000001;rotation=0;opacity=50;" parent="1" vertex="1">
                    <mxGeometry x="380" y="165" width="50" height="70" as="geometry"/>
                </mxCell>
                <mxCell id="40" value="" style="html=1;whiteSpace=wrap;shape=isoCube2;backgroundOutline=1;isoAngle=22.30000000000001;rotation=0;opacity=50;" parent="1" vertex="1">
                    <mxGeometry x="350" y="275" width="50" height="70" as="geometry"/>
                </mxCell>
                <mxCell id="41" value="" style="html=1;whiteSpace=wrap;shape=isoCube2;backgroundOutline=1;isoAngle=22.30000000000001;rotation=0;opacity=50;" parent="1" vertex="1">
                    <mxGeometry x="350" y="245" width="50" height="70" as="geometry"/>
                </mxCell>
                <mxCell id="42" value="" style="html=1;whiteSpace=wrap;shape=isoCube2;backgroundOutline=1;isoAngle=22.30000000000001;rotation=0;opacity=50;" parent="1" vertex="1">
                    <mxGeometry x="350" y="215" width="50" height="70" as="geometry"/>
                </mxCell>
                <mxCell id="43" value="" style="html=1;whiteSpace=wrap;shape=isoCube2;backgroundOutline=1;isoAngle=22.30000000000001;rotation=0;opacity=50;" parent="1" vertex="1">
                    <mxGeometry x="350" y="185" width="50" height="70" as="geometry"/>
                </mxCell>
                <mxCell id="44" value="" style="html=1;whiteSpace=wrap;shape=isoCube2;backgroundOutline=1;isoAngle=22.30000000000001;rotation=0;opacity=50;" parent="1" vertex="1">
                    <mxGeometry x="320" y="295" width="50" height="70" as="geometry"/>
                </mxCell>
                <mxCell id="45" value="" style="html=1;whiteSpace=wrap;shape=isoCube2;backgroundOutline=1;isoAngle=22.30000000000001;rotation=0;opacity=50;" parent="1" vertex="1">
                    <mxGeometry x="320" y="265" width="50" height="70" as="geometry"/>
                </mxCell>
                <mxCell id="46" value="" style="html=1;whiteSpace=wrap;shape=isoCube2;backgroundOutline=1;isoAngle=22.30000000000001;rotation=0;opacity=50;" parent="1" vertex="1">
                    <mxGeometry x="320" y="235" width="50" height="70" as="geometry"/>
                </mxCell>
                <mxCell id="47" value="" style="html=1;whiteSpace=wrap;shape=isoCube2;backgroundOutline=1;isoAngle=22.30000000000001;rotation=0;opacity=50;" parent="1" vertex="1">
                    <mxGeometry x="320" y="205" width="50" height="70" as="geometry"/>
                </mxCell>
                <mxCell id="48" value="" style="html=1;whiteSpace=wrap;shape=isoCube2;backgroundOutline=1;isoAngle=22.30000000000001;rotation=0;opacity=50;strokeColor=#FF0000;" parent="1" vertex="1">
                    <mxGeometry x="290" y="315" width="50" height="70" as="geometry"/>
                </mxCell>
                <mxCell id="49" value="" style="html=1;whiteSpace=wrap;shape=isoCube2;backgroundOutline=1;isoAngle=22.30000000000001;rotation=0;opacity=50;strokeColor=#FF0000;" parent="1" vertex="1">
                    <mxGeometry x="290" y="285" width="50" height="70" as="geometry"/>
                </mxCell>
                <mxCell id="50" value="" style="html=1;whiteSpace=wrap;shape=isoCube2;backgroundOutline=1;isoAngle=22.30000000000001;rotation=0;opacity=50;strokeColor=#FF0000;" parent="1" vertex="1">
                    <mxGeometry x="290" y="255" width="50" height="70" as="geometry"/>
                </mxCell>
                <mxCell id="51" value="" style="html=1;whiteSpace=wrap;shape=isoCube2;backgroundOutline=1;isoAngle=22.30000000000001;rotation=0;opacity=50;strokeColor=#FF0000;" parent="1" vertex="1">
                    <mxGeometry x="290" y="225" width="50" height="70" as="geometry"/>
                </mxCell>
                <mxCell id="52" value="" style="html=1;whiteSpace=wrap;shape=isoCube2;backgroundOutline=1;isoAngle=22.30000000000001;rotation=0;opacity=50;" parent="1" vertex="1">
                    <mxGeometry x="435" y="256" width="50" height="70" as="geometry"/>
                </mxCell>
                <mxCell id="53" value="" style="html=1;whiteSpace=wrap;shape=isoCube2;backgroundOutline=1;isoAngle=22.30000000000001;rotation=0;opacity=50;" parent="1" vertex="1">
                    <mxGeometry x="435" y="226" width="50" height="70" as="geometry"/>
                </mxCell>
                <mxCell id="54" value="" style="html=1;whiteSpace=wrap;shape=isoCube2;backgroundOutline=1;isoAngle=22.30000000000001;rotation=0;opacity=50;" parent="1" vertex="1">
                    <mxGeometry x="435" y="196" width="50" height="70" as="geometry"/>
                </mxCell>
                <mxCell id="55" value="" style="html=1;whiteSpace=wrap;shape=isoCube2;backgroundOutline=1;isoAngle=22.30000000000001;rotation=0;opacity=50;" parent="1" vertex="1">
                    <mxGeometry x="435" y="166" width="50" height="70" as="geometry"/>
                </mxCell>
                <mxCell id="56" value="" style="html=1;whiteSpace=wrap;shape=isoCube2;backgroundOutline=1;isoAngle=22.30000000000001;rotation=0;opacity=50;" parent="1" vertex="1">
                    <mxGeometry x="410" y="276" width="50" height="70" as="geometry"/>
                </mxCell>
                <mxCell id="57" value="" style="html=1;whiteSpace=wrap;shape=isoCube2;backgroundOutline=1;isoAngle=22.30000000000001;rotation=0;opacity=50;" parent="1" vertex="1">
                    <mxGeometry x="410" y="246" width="50" height="70" as="geometry"/>
                </mxCell>
                <mxCell id="58" value="" style="html=1;whiteSpace=wrap;shape=isoCube2;backgroundOutline=1;isoAngle=22.30000000000001;rotation=0;opacity=50;" parent="1" vertex="1">
                    <mxGeometry x="410" y="216" width="50" height="70" as="geometry"/>
                </mxCell>
                <mxCell id="59" value="" style="html=1;whiteSpace=wrap;shape=isoCube2;backgroundOutline=1;isoAngle=22.30000000000001;rotation=0;opacity=50;" parent="1" vertex="1">
                    <mxGeometry x="410" y="186" width="50" height="70" as="geometry"/>
                </mxCell>
                <mxCell id="60" value="" style="html=1;whiteSpace=wrap;shape=isoCube2;backgroundOutline=1;isoAngle=22.30000000000001;rotation=0;opacity=50;" parent="1" vertex="1">
                    <mxGeometry x="380" y="296" width="50" height="70" as="geometry"/>
                </mxCell>
                <mxCell id="61" value="" style="html=1;whiteSpace=wrap;shape=isoCube2;backgroundOutline=1;isoAngle=22.30000000000001;rotation=0;opacity=50;" parent="1" vertex="1">
                    <mxGeometry x="380" y="266" width="50" height="70" as="geometry"/>
                </mxCell>
                <mxCell id="62" value="" style="html=1;whiteSpace=wrap;shape=isoCube2;backgroundOutline=1;isoAngle=22.30000000000001;rotation=0;opacity=50;" parent="1" vertex="1">
                    <mxGeometry x="380" y="236" width="50" height="70" as="geometry"/>
                </mxCell>
                <mxCell id="63" value="" style="html=1;whiteSpace=wrap;shape=isoCube2;backgroundOutline=1;isoAngle=22.30000000000001;rotation=0;opacity=50;" parent="1" vertex="1">
                    <mxGeometry x="380" y="206" width="50" height="70" as="geometry"/>
                </mxCell>
                <mxCell id="64" value="" style="html=1;whiteSpace=wrap;shape=isoCube2;backgroundOutline=1;isoAngle=22.30000000000001;rotation=0;opacity=50;" parent="1" vertex="1">
                    <mxGeometry x="350" y="316" width="50" height="70" as="geometry"/>
                </mxCell>
                <mxCell id="65" value="" style="html=1;whiteSpace=wrap;shape=isoCube2;backgroundOutline=1;isoAngle=22.30000000000001;rotation=0;opacity=50;" parent="1" vertex="1">
                    <mxGeometry x="350" y="286" width="50" height="70" as="geometry"/>
                </mxCell>
                <mxCell id="66" value="" style="html=1;whiteSpace=wrap;shape=isoCube2;backgroundOutline=1;isoAngle=22.30000000000001;rotation=0;opacity=50;" parent="1" vertex="1">
                    <mxGeometry x="350" y="256" width="50" height="70" as="geometry"/>
                </mxCell>
                <mxCell id="67" value="" style="html=1;whiteSpace=wrap;shape=isoCube2;backgroundOutline=1;isoAngle=22.30000000000001;rotation=0;opacity=50;" parent="1" vertex="1">
                    <mxGeometry x="350" y="226" width="50" height="70" as="geometry"/>
                </mxCell>
                <mxCell id="68" value="" style="html=1;whiteSpace=wrap;shape=isoCube2;backgroundOutline=1;isoAngle=22.30000000000001;rotation=0;opacity=50;strokeColor=#FF0000;" parent="1" vertex="1">
                    <mxGeometry x="320" y="336" width="50" height="70" as="geometry"/>
                </mxCell>
                <mxCell id="69" value="" style="html=1;whiteSpace=wrap;shape=isoCube2;backgroundOutline=1;isoAngle=22.30000000000001;rotation=0;opacity=50;strokeColor=#FF0000;" parent="1" vertex="1">
                    <mxGeometry x="320" y="306" width="50" height="70" as="geometry"/>
                </mxCell>
                <mxCell id="70" value="" style="html=1;whiteSpace=wrap;shape=isoCube2;backgroundOutline=1;isoAngle=22.30000000000001;rotation=0;opacity=50;strokeColor=#FF0000;" parent="1" vertex="1">
                    <mxGeometry x="320" y="276" width="50" height="70" as="geometry"/>
                </mxCell>
                <mxCell id="71" value="" style="html=1;whiteSpace=wrap;shape=isoCube2;backgroundOutline=1;isoAngle=22.30000000000001;rotation=0;opacity=50;strokeColor=#FF0000;" parent="1" vertex="1">
                    <mxGeometry x="320" y="246" width="50" height="70" as="geometry"/>
                </mxCell>
                <mxCell id="72" value="" style="html=1;whiteSpace=wrap;shape=isoCube2;backgroundOutline=1;isoAngle=22.30000000000001;rotation=0;opacity=50;" parent="1" vertex="1">
                    <mxGeometry x="465" y="281" width="50" height="70" as="geometry"/>
                </mxCell>
                <mxCell id="73" value="" style="html=1;whiteSpace=wrap;shape=isoCube2;backgroundOutline=1;isoAngle=22.30000000000001;rotation=0;opacity=50;" parent="1" vertex="1">
                    <mxGeometry x="465" y="251" width="50" height="70" as="geometry"/>
                </mxCell>
                <mxCell id="74" value="" style="html=1;whiteSpace=wrap;shape=isoCube2;backgroundOutline=1;isoAngle=22.30000000000001;rotation=0;opacity=50;" parent="1" vertex="1">
                    <mxGeometry x="465" y="221" width="50" height="70" as="geometry"/>
                </mxCell>
                <mxCell id="75" value="" style="html=1;whiteSpace=wrap;shape=isoCube2;backgroundOutline=1;isoAngle=22.30000000000001;rotation=0;opacity=50;" parent="1" vertex="1">
                    <mxGeometry x="465" y="191" width="50" height="70" as="geometry"/>
                </mxCell>
                <mxCell id="76" value="" style="html=1;whiteSpace=wrap;shape=isoCube2;backgroundOutline=1;isoAngle=22.30000000000001;rotation=0;opacity=50;" parent="1" vertex="1">
                    <mxGeometry x="440" y="301" width="50" height="70" as="geometry"/>
                </mxCell>
                <mxCell id="77" value="" style="html=1;whiteSpace=wrap;shape=isoCube2;backgroundOutline=1;isoAngle=22.30000000000001;rotation=0;opacity=50;" parent="1" vertex="1">
                    <mxGeometry x="440" y="271" width="50" height="70" as="geometry"/>
                </mxCell>
                <mxCell id="78" value="" style="html=1;whiteSpace=wrap;shape=isoCube2;backgroundOutline=1;isoAngle=22.30000000000001;rotation=0;opacity=50;" parent="1" vertex="1">
                    <mxGeometry x="440" y="236" width="50" height="75" as="geometry"/>
                </mxCell>
                <mxCell id="79" value="" style="html=1;whiteSpace=wrap;shape=isoCube2;backgroundOutline=1;isoAngle=22.30000000000001;rotation=0;opacity=50;" parent="1" vertex="1">
                    <mxGeometry x="440" y="211" width="50" height="70" as="geometry"/>
                </mxCell>
                <mxCell id="80" value="" style="html=1;whiteSpace=wrap;shape=isoCube2;backgroundOutline=1;isoAngle=22.30000000000001;rotation=0;opacity=50;" parent="1" vertex="1">
                    <mxGeometry x="410" y="321" width="50" height="70" as="geometry"/>
                </mxCell>
                <mxCell id="81" value="" style="html=1;whiteSpace=wrap;shape=isoCube2;backgroundOutline=1;isoAngle=22.30000000000001;rotation=0;opacity=50;" parent="1" vertex="1">
                    <mxGeometry x="410" y="291" width="50" height="70" as="geometry"/>
                </mxCell>
                <mxCell id="82" value="" style="html=1;whiteSpace=wrap;shape=isoCube2;backgroundOutline=1;isoAngle=22.30000000000001;rotation=0;opacity=50;" parent="1" vertex="1">
                    <mxGeometry x="410" y="261" width="50" height="70" as="geometry"/>
                </mxCell>
                <mxCell id="83" value="" style="html=1;whiteSpace=wrap;shape=isoCube2;backgroundOutline=1;isoAngle=22.30000000000001;rotation=0;opacity=50;" parent="1" vertex="1">
                    <mxGeometry x="410" y="231" width="50" height="70" as="geometry"/>
                </mxCell>
                <mxCell id="84" value="" style="html=1;whiteSpace=wrap;shape=isoCube2;backgroundOutline=1;isoAngle=22.30000000000001;rotation=0;opacity=50;" parent="1" vertex="1">
                    <mxGeometry x="380" y="341" width="50" height="70" as="geometry"/>
                </mxCell>
                <mxCell id="85" value="" style="html=1;whiteSpace=wrap;shape=isoCube2;backgroundOutline=1;isoAngle=22.30000000000001;rotation=0;opacity=50;" parent="1" vertex="1">
                    <mxGeometry x="380" y="311" width="50" height="70" as="geometry"/>
                </mxCell>
                <mxCell id="86" value="" style="html=1;whiteSpace=wrap;shape=isoCube2;backgroundOutline=1;isoAngle=22.30000000000001;rotation=0;opacity=50;" parent="1" vertex="1">
                    <mxGeometry x="380" y="281" width="50" height="70" as="geometry"/>
                </mxCell>
                <mxCell id="87" value="" style="html=1;whiteSpace=wrap;shape=isoCube2;backgroundOutline=1;isoAngle=22.30000000000001;rotation=0;opacity=50;" parent="1" vertex="1">
                    <mxGeometry x="380" y="251" width="50" height="70" as="geometry"/>
                </mxCell>
                <mxCell id="88" value="" style="html=1;whiteSpace=wrap;shape=isoCube2;backgroundOutline=1;isoAngle=22.30000000000001;rotation=0;opacity=50;strokeColor=#FF0000;" parent="1" vertex="1">
                    <mxGeometry x="350" y="361" width="50" height="70" as="geometry"/>
                </mxCell>
                <mxCell id="89" value="" style="html=1;whiteSpace=wrap;shape=isoCube2;backgroundOutline=1;isoAngle=22.30000000000001;rotation=0;opacity=50;strokeColor=#FF0000;" parent="1" vertex="1">
                    <mxGeometry x="350" y="331" width="50" height="70" as="geometry"/>
                </mxCell>
                <mxCell id="90" value="" style="html=1;whiteSpace=wrap;shape=isoCube2;backgroundOutline=1;isoAngle=22.30000000000001;rotation=0;opacity=50;strokeColor=#FF0000;" parent="1" vertex="1">
                    <mxGeometry x="350" y="301" width="50" height="70" as="geometry"/>
                </mxCell>
                <mxCell id="91" value="" style="html=1;whiteSpace=wrap;shape=isoCube2;backgroundOutline=1;isoAngle=22.30000000000001;rotation=0;opacity=50;strokeColor=#FF0000;" parent="1" vertex="1">
                    <mxGeometry x="350" y="271" width="50" height="70" as="geometry"/>
                </mxCell>
            </root>
        </mxGraphModel>
    </diagram>
</mxfile>